<svg viewBox="0 0 998 111" xmlns="http://www.w3.org/2000/svg" fill-rule="evenodd" clip-rule="evenodd" stroke-linejoin="round" stroke-miterlimit="2"><path d="M18.993 86.746c10.109 0 17.053-6.229 20.219-14.738V85.42h13.649V25.682H38.973V55.16c0 13.173-6.331 19.878-14.976 19.878-6.808 0-10.246-4.629-10.246-14.125v-35.23H0v38.633c0 13.65 6.467 22.431 18.993 22.431zm60.302-1.36V55.533c0-12.186 6.229-19.504 14.977-19.504 7.557 0 11.199 4.765 11.199 14.364V85.35h14.023V47.024c0-13.513-7.08-22.669-20.116-22.669-10.348 0-17.428 6.467-20.457 15.351V25.682H65.408v59.703h13.887zm65.34 0V25.681h-13.887v59.703h13.887zm45.169 0l23.145-59.704h-13.887l-15.964 46.054-15.487-46.054h-15.249l22.907 59.703h14.535zm54.699 1.36c14.5 0 23.384-7.93 27.06-17.29l-11.471-4.766c-2.689 7.08-7.556 11.471-15.113 11.471-10.484 0-15.589-7.319-15.964-17.904h42.786v-2.45c0-19.505-10.007-31.929-27.673-31.929-16.338 0-28.762 11.573-28.762 31.451.034 18.96 10.382 31.417 29.137 31.417zm13.411-38.02H229.39c.987-9.258 6.331-14.636 14.636-14.636 8.033 0 13.411 4.867 13.888 14.636zm38.258 36.66v-25.36c0-15.35 7.931-21.92 20.117-21.92.714 0 1.327 0 1.906.033 0 0 .578-4.697 1.736-14.057-1.056-.068-1.872-.137-2.451-.137-10.858 0-18.04 7.08-21.58 18.041V25.648h-13.513v59.703h13.785v.034zm346.847 0v-25.36c0-15.35 7.93-21.92 20.116-21.92.715 0 1.327 0 1.906.033 0 0 .579-4.697 1.736-14.057-1.055-.068-1.872-.137-2.451-.137-10.858 0-18.04 7.08-21.58 18.041V25.648h-13.513v59.703h13.786v.034zm264.474 0v-25.36c0-15.35 7.931-21.92 20.117-21.92.714 0 1.327 0 1.906.033 0 0 .578-4.697 1.736-14.057-1.056-.068-1.872-.137-2.451-.137-10.858 0-18.04 7.08-21.58 18.041V25.648h-13.513v59.703h13.785v.034zm-558.562 1.701c15.113 0 24.848-7.182 24.848-18.993 0-8.408-4.868-14.637-16.441-17.666l-10.347-2.79c-6.57-1.839-9.395-3.54-9.395-7.694 0-3.914 3.54-6.705 10.246-6.705 7.692 0 11.471 4.765 12.56 9.633l11.811-3.166c-2.553-9.87-11.709-15.828-23.759-15.828-13.649 0-23.282 6.808-23.282 17.666 0 8.544 5.481 14.636 16.203 17.291l9.734 2.69c7.319 1.94 9.633 3.914 9.633 8.271 0 4.356-3.914 7.794-11.573 7.794-7.931 0-13.172-5.003-14.364-11.573l-12.185 3.404c2.076 10.382 11.573 17.666 26.311 17.666zm48.878-1.702V25.682h-13.887v59.703h13.887zm38.633 1.225c4.391 0 8.272-1.089 10.484-2.178V74.186c-2.451.715-4.391 1.09-6.807 1.09-5.957 0-8.782-2.315-8.782-8.782V36.166h14.976V25.682h-15.112v-17.8h-13.275v17.8h-13.173v10.484h13.173v32.166c-.034 12.322 6.433 18.278 18.516 18.278zm36.659.477c10.11 0 17.053-5.378 20.117-12.9.476 7.794 5.003 12.321 13.274 12.321 3.064 0 6.229-.715 8.17-1.94v-8.884c-1.328.613-2.689.715-3.915.715-3.642 0-5.378-1.6-5.378-6.808v-22.43c0-15.114-9.122-23.283-25.698-23.283-14.364 0-24.61 7.32-25.223 18.04l13.037 2.18v-1.09c.477-6.229 5.106-9.633 12.186-9.633 8.645 0 12.321 4.153 12.321 11.71v3.301c-2.927-.239-5.956-.477-9.632-.477-15.964.238-28.762 5.718-28.762 20.967 0 11.641 8.169 18.211 19.503 18.211zm4.527-10.212c-6.467 0-10.347-3.403-10.347-9.02 0-8.27 7.08-11.334 18.414-11.573 2.315 0 4.391.137 6.331.24v4.253c-.034 10.11-5.752 16.1-14.398 16.1zm66.987 9.735c4.391 0 8.271-1.089 10.484-2.178V74.186c-2.451.715-4.391 1.09-6.808 1.09-5.957 0-8.782-2.315-8.782-8.782V36.166h14.977V25.682h-15.113v-17.8h-13.275v17.8h-13.172v10.484h13.172v32.166c0 12.322 6.468 18.278 18.517 18.278zm62.187-1.225V36.166h14.262V25.682h-14.262v-5.718c0-5.855 2.451-8.646 8.646-8.646 1.6 0 3.404.137 5.48.613V1.447c-2.451-.612-5.48-1.225-8.782-1.225-11.198 0-18.755 5.48-18.755 18.04v7.42h-32.336v10.484h32.336v49.22h13.411zm90.711 1.361c14.5 0 23.384-7.93 27.06-17.29l-11.47-4.766c-2.689 7.08-7.557 11.471-15.113 11.471-10.484 0-15.59-7.319-15.964-17.904h42.786v-2.45c0-19.505-10.007-31.929-27.673-31.929-16.338 0-28.762 11.573-28.762 31.451.034 18.96 10.381 31.417 29.136 31.417zm13.411-38.02H682.4c.988-9.258 6.331-14.636 14.637-14.636 8.033 0 13.411 4.867 13.887 14.636zm37.714 36.66V25.681h-13.887v59.703h13.887zm46.122 1.463c14.023 0 24.371-11.573 24.371-31.69 0-19.367-10.11-30.94-24.371-30.94-10.11 0-16.679 5.616-19.742 12.9V1.447H761.13V85.42h13.649V73.95c3.166 7.283 10.007 12.9 19.981 12.9zm-4.63-10.348c-9.496 0-15.351-8.407-15.351-20.967 0-13.173 5.957-20.968 15.249-20.968 9.293 0 14.977 7.421 14.977 20.831 0 13.786-5.616 21.104-14.875 21.104zm182.205 12.152H951.47c-2.451.034-4.425.544-5.854 1.565-1.498 1.055-2.247 2.485-2.315 4.323-.034 2.383 1.396 4.153 4.221 5.31 2.859 1.157 7.08 1.736 12.73 1.736 6.978 0 12.083-.647 15.283-1.94 3.234-1.294 4.833-3.2 4.833-5.719 0-1.872-.68-3.233-2.008-4.05-1.327-.817-3.37-1.225-6.025-1.225zm24.78-66.919L998 32.898h-2.144c-2.587.034-4.766.92-6.57 2.621-1.77 1.672-2.687 4.227-2.753 7.667l-.004.4v3.03c-.034 4.186-1.089 7.965-3.131 11.266-2.077 3.404-5.072 6.06-8.952 7.965-3.725 1.863-8.015 2.816-12.87 2.89l-.609.003h-.307c-3.716-.032-7.13-.606-10.329-1.724l-.597-.216-.238-.102-.204.068c-1.055.41-2.008.953-2.791 1.634-1.158.987-1.736 2.246-1.736 3.744 0 1.668.646 2.893 1.974 3.71 1.254.772 2.993 1.18 5.276 1.222l.408.004h22.976c5.412.034 9.599 1.26 12.56 3.71 3.029 2.485 4.527 5.956 4.527 10.45 0 6.296-2.655 11.13-7.999 14.5-5.31 3.37-13.581 5.037-24.746 5.037-8.713 0-15.419-1.19-20.116-3.54-4.697-2.348-7.012-5.65-7.012-9.803 0-2.689.919-4.867 2.723-6.5 1.804-1.669 4.221-2.86 7.216-3.609-2.587-.715-4.629-2.008-6.161-3.914-1.531-1.872-2.28-4.289-2.28-7.216 0-3.142 1.07-5.844 3.21-8.105l.262-.269.17-.17a16.28 16.28 0 015.943-3.659l.456-.153h-.034a21.51 21.51 0 01-5.446-5.65c-2.247-3.404-3.336-7.319-3.336-11.778 0-4.186 1.089-7.998 3.234-11.436 2.144-3.438 5.208-6.127 9.088-8.1 3.914-1.976 8.407-2.963 13.445-2.963 5.242 0 9.871 1.056 13.887 3.166 3.983 2.11 6.91 5.072 8.714 8.884.374-4.595 1.736-8.067 4.051-10.484 2.314-2.417 5.446-3.642 9.36-3.744zm-155.111 3.948v35.23c0 9.496 3.404 14.125 10.246 14.125 8.548 0 14.834-6.555 14.974-19.436l.002-.442V25.682h13.888v59.703h-13.649v-13.41c-3.166 8.542-10.11 14.737-20.219 14.737-12.432 0-18.861-8.603-18.991-22.014l-.002-.417V25.682h13.751zm118.52 7.591c-2.382 0-4.493.476-6.365 1.463-1.872.988-3.336 2.451-4.425 4.391-1.089 1.975-1.6 4.391-1.6 7.25 0 4.29 1.158 7.523 3.438 9.701 2.281 2.18 5.276 3.268 8.952 3.268 3.71 0 6.706-1.089 9.02-3.302 2.315-2.212 3.472-5.446 3.472-9.735 0-2.893-.544-5.31-1.634-7.25-1.089-1.94-2.587-3.404-4.459-4.357-1.838-.953-3.982-1.429-6.399-1.429zM467.757.937c4.391 0 7.421 3.267 7.421 7.42 0 4.255-3.03 7.556-7.421 7.556-4.288 0-7.454-3.3-7.42-7.556 0-4.119 3.166-7.42 7.42-7.42zm22.806 0c4.391 0 7.42 3.267 7.42 7.42 0 4.255-3.029 7.556-7.42 7.556-4.289 0-7.455-3.3-7.421-7.556 0-4.119 3.166-7.42 7.421-7.42zm-99.731 0c4.391 0 7.42 3.267 7.42 7.42 0 4.255-3.029 7.556-7.42 7.556-4.289 0-7.455-3.3-7.421-7.556 0-4.119 3.166-7.42 7.421-7.42zm350.59 0c4.357 0 7.42 3.267 7.42 7.42 0 4.255-3.029 7.556-7.42 7.556-4.289 0-7.454-3.3-7.42-7.556 0-4.119 3.165-7.42 7.42-7.42zm-603.832 0c4.356 0 7.42 3.267 7.42 7.42 0 4.255-3.03 7.556-7.42 7.556-4.289 0-7.455-3.3-7.421-7.556 0-4.119 3.166-7.42 7.421-7.42z" fill="#fff" fill-rule="nonzero"/></svg>